HIERARCHY
ROOT Hips
{
	OFFSET -3.958830 18.904000 13.208200
	CHANNELS 6 Xposition Yposition Zposition Zrotation Yrotation Xrotation 
	JOINT LHipJoint
	{
		OFFSET 0.000000 0.000000 0.000000
		CHANNELS 3 Zrotation Yrotation Xrotation
		JOINT LeftUpLeg
		{
			OFFSET 1.800000 -1.400000 0.085000
			CHANNELS 3 Zrotation Yrotation Xrotation
			JOINT LeftLeg
			{
				OFFSET 2.215000 -6.000000 0.000000
				CHANNELS 3 Zrotation Yrotation Xrotation
				JOINT LeftFoot
				{
					OFFSET 2.500000 -6.900000 0.000000
					CHANNELS 3 Zrotation Yrotation Xrotation
					JOINT LeftToeBase
					{
						OFFSET 0.200000 -0.500000 1.950000
						CHANNELS 3 Zrotation Yrotation Xrotation
						End Site
						{
							OFFSET 0.000000 0.000000 0.000000
						}
					}
				}
			}
		}
	}
	JOINT RHipJoint
	{
		OFFSET 0.000000 0.000000 0.000000
		CHANNELS 3 Zrotation Yrotation Xrotation
		JOINT RightUpLeg
		{
			OFFSET -1.800000 -1.400000 0.085000
			CHANNELS 3 Zrotation Yrotation Xrotation
			JOINT RightLeg
			{
				OFFSET -2.215000 -6.000000 0.000000
				CHANNELS 3 Zrotation Yrotation Xrotation
				JOINT RightFoot
				{
					OFFSET -2.500000 -6.900000 0.000000
					CHANNELS 3 Zrotation Yrotation Xrotation
					JOINT RightToeBase
					{
						OFFSET -0.200000 -0.500000 1.950000
						CHANNELS 3 Zrotation Yrotation Xrotation
						End Site
						{
							OFFSET 0.000000 0.000000 0.000000
						}
					}
				}
			}
		}
	}
	JOINT LowerBack
	{
		OFFSET 0.000000 0.000000 0.000000
		CHANNELS 3 Zrotation Yrotation Xrotation
		JOINT Spine
		{
			OFFSET -0.087000 1.940000 -0.288900
			CHANNELS 3 Zrotation Yrotation Xrotation
			JOINT Spine1
			{
				OFFSET 0.000000 1.950000 0.060000
				CHANNELS 3 Zrotation Yrotation Xrotation
				JOINT Neck
				{
					OFFSET 0.000000 0.000000 0.000000
					CHANNELS 3 Zrotation Yrotation Xrotation
					JOINT Neck1
					{
						OFFSET 0.000000 1.600000 0.340000
						CHANNELS 3 Zrotation Yrotation Xrotation
						JOINT Head
						{
							OFFSET 0.000000 1.667000 -0.240000
							CHANNELS 3 Zrotation Yrotation Xrotation
							End Site
							{
								OFFSET 0.000000 0.000000 0.000000
							}
						}
					}
				}
				JOINT LeftShoulder
				{
					OFFSET 0.000000 0.000000 0.000000
					CHANNELS 3 Zrotation Yrotation Xrotation
					JOINT LeftArm
					{
						OFFSET 2.700000 1.550000 -0.730000
						CHANNELS 3 Zrotation Yrotation Xrotation
						JOINT LeftForeArm
						{
							OFFSET 5.450000 0.000000 0.000000
							CHANNELS 3 Zrotation Yrotation Xrotation
							JOINT LeftHand
							{
								OFFSET 3.450000 0.000000 0.000000
								CHANNELS 3 Zrotation Yrotation Xrotation
								JOINT LeftHandIndex1
								{
									OFFSET 0.750000 0.000000 0.000000
									CHANNELS 3 Zrotation Yrotation Xrotation
									End Site
									{
										OFFSET 0.000000 0.000000 0.000000
									}
								}
							}
						}
					}
				}
				JOINT RightShoulder
				{
					OFFSET 0.000000 0.000000 0.000000
					CHANNELS 3 Zrotation Yrotation Xrotation
					JOINT RightArm
					{
						OFFSET -2.700000 1.550000 -0.730000
						CHANNELS 3 Zrotation Yrotation Xrotation
						JOINT RightForeArm
						{
							OFFSET -5.450000 0.000000 0.000000
							CHANNELS 3 Zrotation Yrotation Xrotation
							JOINT RightHand
							{
								OFFSET -3.450000 0.000000 0.000000
								CHANNELS 3 Zrotation Yrotation Xrotation
								JOINT RightHandIndex1
								{
									OFFSET -0.750000 0.000000 0.000000
									CHANNELS 3 Zrotation Yrotation Xrotation
									End Site
									{
										OFFSET 0.000000 0.000000 0.000000
									}
								}
							}
						}
					}
				}
			}
		}
	}
}
MOTION
Frames: 8
Frame Time: 0.016667
5.190490 16.189430 -5.200580 -5.104362 -10.813526 -1.114329 -15.789371 12.616275 4.905174 19.297860 -6.374531 -28.432303 -23.413961 21.402304 44.904589 1.196978 11.025537 0.416895 0.643160 0.629290 0.601840 17.955511 -7.869954 3.445541 -3.044621 9.719879 -31.810304 14.521031 -13.725257 45.249307 -1.240400 -6.866602 1.793379 0.248440 -0.565010 -0.001180 -2.270717 -5.775943 -9.175219 6.500122 -6.526536 44.815577 7.058953 -3.024421 2.701939 1.542889 -9.343483 -12.048586 -29.093451 13.568179 52.831379 -6.067070 2.685290 -19.211810 -15.924604 -4.028499 4.453033 -36.279772 10.724216 -11.726982 -93.498329 -25.165331 14.116360 -3.065859 3.491478 0.577090 -0.477450 0.523140 -0.001860 13.874425 12.705847 5.621525 28.614457 -0.899493 -12.483350 68.077993 44.094171 20.845897 2.493343 -1.632584 0.144680 0.112720 -0.249580 -0.186150 
5.206770 16.076060 -5.229470 -4.944093 -9.542253 -2.358589 -15.801856 12.397200 4.995403 20.706768 -6.696401 -27.904541 -25.715396 22.710163 45.074917 1.318504 11.422835 0.305585 0.663690 0.655830 0.613400 17.986070 -7.691811 3.499506 -4.278974 9.838197 -33.177156 15.292309 -15.753230 49.013264 -1.451260 -7.799377 1.491734 0.266220 -0.562700 -0.002600 -2.325400 -5.759030 -9.259970 7.066060 -7.554809 46.939419 6.708219 -4.027839 4.094881 1.597278 -8.827155 -12.414402 -28.342162 13.950574 55.300384 -5.253490 2.477420 -17.859310 -14.073435 -4.110207 4.892099 -33.198594 12.068325 -11.470321 -99.970956 -23.312823 13.685950 -3.032025 3.543361 0.568350 -0.474810 0.528330 0.008450 11.957128 11.953467 5.572782 26.256110 -1.744868 -12.385316 77.749990 44.474848 24.822028 2.492196 -1.713126 0.150980 0.117200 -0.263210 -0.179540 
5.219060 15.991590 -5.252180 -4.633472 -8.584765 -3.377721 -15.786234 12.212231 5.073683 21.591854 -6.994110 -27.465685 -27.580053 23.767526 45.241243 1.395176 11.727218 0.217912 0.679900 0.675230 0.634460 18.025257 -7.640056 3.505043 -5.206293 9.679793 -33.973567 15.321136 -16.984077 51.508541 -1.584724 -8.379189 1.304617 0.286060 -0.573210 -0.008770 -2.419177 -5.595660 -9.309648 7.951336 -8.293955 48.454552 5.941187 -4.626265 5.457560 1.745661 -8.259709 -12.554107 -26.889013 13.319261 56.896150 -5.073160 2.230840 -17.825610 -12.441738 -4.250346 5.023557 -29.767883 12.019769 -10.686600 -104.697145 -22.568738 14.242409 -3.005387 3.567602 0.576890 -0.477220 0.537100 0.006430 10.013260 11.310999 5.632513 25.630982 -2.144395 -12.411438 84.289406 45.103553 27.994391 2.482546 -1.755912 0.144180 0.127540 -0.270970 -0.189370 
5.222680 15.932210 -5.257760 -4.192555 -8.288090 -3.875206 -15.793360 12.024154 5.185223 22.458110 -7.231221 -27.356929 -29.863088 24.979404 45.100553 1.513023 12.013257 0.143531 0.684540 0.687080 0.623470 18.049437 -7.545966 3.515772 -5.830868 9.603905 -34.947841 14.929032 -17.902207 53.928833 -1.695027 -8.881921 1.148833 0.283660 -0.566810 0.000460 -2.459270 -5.504691 -9.377328 8.122069 -8.573605 49.097183 5.745043 -4.993257 6.384336 1.679584 -8.089944 -12.911319 -26.659124 12.953343 57.532092 -4.275930 1.506480 -17.416920 -10.662997 -4.384817 5.322685 -27.896838 12.062570 -10.257437 -106.062435 -22.834093 15.061634 -2.985644 3.599171 0.565250 -0.476510 0.538260 0.010690 8.404173 11.117744 5.944885 25.168278 -2.876198 -12.349520 88.707184 45.071999 29.905458 2.478537 -1.795837 0.162160 0.118930 -0.271090 -0.172910 
5.224780 15.905580 -5.242230 -3.623619 -8.318690 -4.188928 -15.769351 11.913422 5.237433 22.679236 -7.355901 -27.067666 -31.295183 25.676230 44.828499 1.581587 12.150475 0.113590 0.678470 0.683830 0.614650 18.079370 -7.587243 3.494893 -5.939563 9.440936 -35.343538 13.765123 -17.925552 55.508303 -1.726918 -9.084961 1.084498 0.279720 -0.560270 0.004320 -2.539637 -5.295306 -9.395183 8.434133 -8.724096 48.881829 5.052293 -5.121136 6.904127 1.726581 -7.804002 -13.028190 -26.002504 12.465915 58.192500 -3.889650 1.139680 -16.837090 -10.364403 -4.816348 5.363881 -26.580545 11.676673 -9.988306 -104.581191 -24.551155 16.919157 -2.998133 3.598696 0.553350 -0.469640 0.532860 0.009630 8.006001 11.158466 6.193618 25.094520 -3.378428 -12.215065 90.175831 44.493753 30.035526 2.476065 -1.815174 0.167930 0.111220 -0.268320 -0.166440 
5.221670 15.909780 -5.210260 -3.007992 -8.569865 -4.392889 -15.737917 11.921228 5.204254 22.300673 -7.359566 -26.343857 -31.661860 25.806512 44.547034 1.613578 12.137145 0.124940 0.673960 0.679850 0.607590 18.095666 -7.684605 3.480232 -5.730757 9.342945 -35.462585 12.236096 -17.416564 56.661728 -1.720639 -9.125418 1.071547 0.272370 -0.563410 0.006140 -2.600946 -5.139766 -9.375180 8.602191 -8.787702 48.441426 4.255196 -5.078144 6.666434 1.931197 -7.714818 -13.104677 -26.062393 12.259412 58.737966 -3.940410 0.690560 -16.120990 -11.650863 -5.730755 5.244371 -26.789850 10.922028 -10.166970 -99.711866 -26.969815 18.264384 -3.022424 3.573666 0.539130 -0.467790 0.528100 0.009480 8.885813 11.898217 6.564504 24.898110 -3.953079 -12.138390 89.016359 43.706559 28.723113 2.484621 -1.818303 0.178450 0.095770 -0.270780 -0.160180 
5.214520 15.929140 -5.161830 -2.349497 -8.946452 -4.278392 -15.684230 11.949364 5.151336 21.535114 -7.328191 -25.876746 -31.270844 25.685153 44.548519 1.624989 12.104646 0.157213 0.643450 0.634730 0.589220 18.126010 -7.850890 3.454710 -5.024796 9.289096 -35.416267 9.915334 -16.197508 57.515033 -1.655476 -8.994608 1.122522 0.250780 -0.537490 0.002300 -2.708308 -4.896915 -9.330121 9.023312 -8.932207 47.026553 3.158725 -5.019196 5.777749 2.084694 -7.628386 -13.048396 -26.059823 12.497950 59.072964 -4.237980 0.825870 -14.337260 -13.700678 -6.873959 4.986190 -27.565540 9.622674 -10.359142 -90.738028 -28.370953 16.973181 -3.079601 3.509507 0.516620 -0.443160 0.496960 0.010360 10.606298 12.789356 6.832212 25.180402 -4.015598 -11.899043 84.654447 42.526319 25.859004 2.492219 -1.797132 0.166790 0.090200 -0.261040 -0.160210 
5.205080 15.971020 -5.096790 -1.579763 -9.489336 -3.865709 -15.633619 12.048736 5.049274 20.252257 -7.200780 -25.579593 -29.683949 25.180774 45.035614 1.603394 12.001419 0.200454 0.596230 0.572780 0.565230 18.140144 -8.033349 3.455757 -4.719944 9.279672 -35.250074 8.269320 -14.961640 57.374502 -1.555811 -8.750619 1.204945 0.218630 -0.514890 -0.000300 -2.780866 -4.698805 -9.284510 9.145271 -8.647958 45.027817 2.183589 -4.646435 4.445605 2.337160 -7.357116 -13.006674 -25.496599 12.660637 59.766317 -5.017800 1.494430 -12.155130 -16.553934 -8.248206 4.824985 -28.861540 8.657466 -10.484738 -80.556043 -27.963557 13.808923 -3.137730 3.436954 0.492950 -0.412290 0.462750 -0.000480 12.920699 13.971967 7.105476 26.169485 -3.866122 -11.768870 77.086658 41.112420 21.813447 2.503533 -1.746241 0.152480 0.074100 -0.241910 -0.166330 
